<?xml version="1.0"?>
<svg width="500" height="250" xmlns="http://www.w3.org/2000/svg" xmlns:svg="http://www.w3.org/2000/svg">
 <!-- Background shape - dark mode -->
 <!-- Media icons -->
 <!-- Play button -->
 <!-- Book -->
 <!-- TV -->
 <!-- List lines -->
 <!-- Text -->
 <!-- Checkmark -->
 <g class="layer">
  <title>Layer 1</title>
  <rect fill="#13141f" height="119.03" id="svg_1" rx="20" ry="20" stroke="#2c2f47" stroke-width="3" width="363.23" x="82.9" y="62.26"/>
  <circle cx="120" cy="100" fill="#1a1c2e" id="svg_2" r="25" stroke="#2c2f47" stroke-width="2"/>
  <polygon fill="#8a7cff" id="svg_3" points="112.5806450843811,90 112.5806450843811,110 132.5806450843811,100 " stroke="#2c2f47" stroke-width="1.5"/>
  <rect fill="#1a1c2e" height="50" id="svg_4" rx="3" ry="3" stroke="#2c2f47" stroke-width="2" width="40" x="170" y="75"/>
  <line id="svg_5" stroke="#8a7cff" stroke-width="1.5" x1="180" x2="200" y1="85" y2="85"/>
  <line id="svg_6" stroke="#8a7cff" stroke-width="1.5" x1="180" x2="200" y1="95" y2="95"/>
  <line id="svg_7" stroke="#8a7cff" stroke-width="1.5" x1="180" x2="190" y1="105" y2="105"/>
  <rect fill="#1a1c2e" height="35" id="svg_8" rx="3" ry="3" stroke="#2c2f47" stroke-width="2" width="45" x="240" y="75"/>
  <rect fill="#1a1c2e" height="15" id="svg_9" stroke="#2c2f47" stroke-width="2" width="25" x="250" y="110"/>
  <line id="svg_10" stroke="#8a7cff" stroke-width="1.5" x1="250" x2="275" y1="85" y2="85"/>
  <line id="svg_11" stroke="#8a7cff" stroke-width="1.5" x1="250" x2="275" y1="95" y2="95"/>
  <line id="svg_12" stroke="#2c2f47" stroke-width="2" x1="100" x2="400" y1="150" y2="150"/>
  <line id="svg_13" stroke="#2c2f47" stroke-width="2" x1="100" x2="380" y1="160" y2="160"/>
  <line id="svg_14" stroke="#2c2f47" stroke-width="2" x1="100" x2="360" y1="170" y2="170"/>
  <text fill="#8a7cff" font-family="Arial" font-size="42" font-weight="bold" id="svg_15" x="308.39" y="111.94">My</text>
  <text fill="#8a7cff" font-family="Arial" font-size="26" font-weight="bold" id="svg_16" x="308.39" y="141.94">Media</text>
  <text fill="#6f7199" font-family="Arial" font-size="26" font-weight="bold" id="svg_17" x="388.39" y="141.94">List</text>
  <circle cx="388.39" cy="91.94" fill="#1a1c2e" id="svg_18" r="15" stroke="#2c2f47" stroke-width="1.5"/>
  <path d="m378.39,91.94l7,7l13,-13" fill="none" id="svg_19" stroke="#8a7cff" stroke-width="3"/>
 </g>
</svg>