<svg xmlns="http://www.w3.org/2000/svg" viewBox="0 0 200 200">
  <!-- Fondo del avatar -->
  <rect width="200" height="200" fill="#00B894" rx="100" ry="100" />
  
  <!-- Especie de robot -->
  <!-- Cabeza -->
  <rect x="60" y="50" width="80" height="70" rx="10" ry="10" fill="#FFFFFF" />
  
  <!-- Antenas -->
  <line x1="80" y1="50" x2="70" y2="30" stroke="#FFFFFF" stroke-width="4" />
  <circle cx="70" cy="30" r="5" fill="#FFFFFF" />
  
  <line x1="120" y1="50" x2="130" y2="30" stroke="#FFFFFF" stroke-width="4" />
  <circle cx="130" cy="30" r="5" fill="#FFFFFF" />
  
  <!-- Ojos -->
  <rect x="75" y="70" width="20" height="15" rx="5" ry="5" fill="#00B894" />
  <rect x="105" y="70" width="20" height="15" rx="5" ry="5" fill="#00B894" />
  
  <!-- Boca -->
  <rect x="80" y="95" width="40" height="10" rx="5" ry="5" fill="#00B894" />
  <line x1="85" y1="100" x2="115" y2="100" stroke="#FFFFFF" stroke-width="2" stroke-dasharray="4 2" />
  
  <!-- Cuerpo -->
  <rect x="70" y="120" width="60" height="50" rx="10" ry="10" fill="#FFFFFF" />
  
  <!-- Botones -->
  <circle cx="85" cy="135" r="5" fill="#00B894" />
  <circle cx="100" cy="135" r="5" fill="#00B894" />
  <circle cx="115" cy="135" r="5" fill="#00B894" />
  
  <!-- Brazos -->
  <rect x="40" y="130" width="30" height="10" rx="5" ry="5" fill="#FFFFFF" />
  <rect x="130" y="130" width="30" height="10" rx="5" ry="5" fill="#FFFFFF" />
</svg>