<svg viewBox="0 0 200 200" xmlns="http://www.w3.org/2000/svg">
  <!-- Fondo circular -->
  <circle cx="100" cy="100" r="100" fill="#FFECB3"/>
  
  <!-- Cara del gato -->
  <circle cx="100" cy="100" r="70" fill="#E0E0E0"/>
  
  <!-- Orejas -->
  <path d="M50 50 L80 80 L55 95 Z" fill="#BDBDBD"/>
  <path d="M150 50 L120 80 L145 95 Z" fill="#BDBDBD"/>
  <path d="M60 55 L80 75 L65 85 Z" fill="#FFCDD2"/>
  <path d="M140 55 L120 75 L135 85 Z" fill="#FFCDD2"/>
  
  <!-- Ojos -->
  <ellipse cx="75" cy="95" rx="12" ry="15" fill="#FFFFFF" transform="rotate(-10 75 95)"/>
  <ellipse cx="125" cy="95" rx="12" ry="15" fill="#FFFFFF" transform="rotate(10 125 95)"/>
  <ellipse cx="75" cy="95" rx="6" ry="12" fill="#4CAF50" transform="rotate(-10 75 95)"/>
  <ellipse cx="125" cy="95" rx="6" ry="12" fill="#4CAF50" transform="rotate(10 125 95)"/>
  <ellipse cx="75" cy="95" rx="3" ry="9" fill="#000000" transform="rotate(-10 75 95)"/>
  <ellipse cx="125" cy="95" rx="3" ry="9" fill="#000000" transform="rotate(10 125 95)"/>
  
  <!-- Brillos en los ojos -->
  <circle cx="78" cy="90" r="3" fill="#FFFFFF"/>
  <circle cx="128" cy="90" r="3" fill="#FFFFFF"/>
  
  <!-- Nariz y boca -->
  <path d="M98 110 L102 110 L100 114 Z" fill="#F48FB1"/>
  <path d="M100 114 Q100 120 95 119" stroke="#9E9E9E" stroke-width="2" fill="none"/>
  <path d="M100 114 Q100 120 105 119" stroke="#9E9E9E" stroke-width="2" fill="none"/>
  
  <!-- Bigotes -->
  <line x1="95" y1="112" x2="65" y2="105" stroke="#BDBDBD" stroke-width="1.5"/>
  <line x1="95" y1="114" x2="67" y2="115" stroke="#BDBDBD" stroke-width="1.5"/>
  <line x1="95" y1="116" x2="70" y2="125" stroke="#BDBDBD" stroke-width="1.5"/>
  
  <line x1="105" y1="112" x2="135" y2="105" stroke="#BDBDBD" stroke-width="1.5"/>
  <line x1="105" y1="114" x2="133" y2="115" stroke="#BDBDBD" stroke-width="1.5"/>
  <line x1="105" y1="116" x2="130" y2="125" stroke="#BDBDBD" stroke-width="1.5"/>
</svg>