<svg viewBox="0 0 200 200" xmlns="http://www.w3.org/2000/svg">
  <!-- Fondo circular -->
  <circle cx="100" cy="100" r="100" fill="#FFCC80"/>
  
  <!-- Cara del zorro -->
  <ellipse cx="100" cy="100" rx="70" ry="65" fill="#FF8A65"/>
  
  <!-- Orejas -->
  <path d="M45 55 L70 80 L55 90 Z" fill="#BF360C"/>
  <path d="M155 55 L130 80 L145 90 Z" fill="#BF360C"/>
  <path d="M50 60 L70 80 L60 87 Z" fill="#FF8A65"/>
  <path d="M150 60 L130 80 L140 87 Z" fill="#FF8A65"/>
  
  <!-- Parte blanca de la cara -->
  <path d="M70 140 Q100 160 130 140 Q115 100 100 90 Q85 100 70 140 Z" fill="#FFFFFF"/>
  
  <!-- Ojos -->
  <ellipse cx="80" cy="95" rx="10" ry="12" fill="#000000"/>
  <ellipse cx="120" cy="95" rx="10" ry="12" fill="#000000"/>
  
  <!-- Brillos en los ojos -->
  <ellipse cx="83" cy="92" rx="3" ry="4" fill="#FFFFFF"/>
  <ellipse cx="123" cy="92" rx="3" ry="4" fill="#FFFFFF"/>
  
  <!-- Nariz -->
  <path d="M95 115 Q100 120 105 115 Q100 123 95 115 Z" fill="#4E342E"/>
  
  <!-- Hocico/boca -->
  <path d="M100 120 L100 130" stroke="#4E342E" stroke-width="1"/>
  <path d="M100 130 Q95 135 90 132" stroke="#4E342E" stroke-width="1.5" fill="none"/>
  <path d="M100 130 Q105 135 110 132" stroke="#4E342E" stroke-width="1.5" fill="none"/>
  
  <!-- Bigotes -->
  <line x1="95" y1="120" x2="70" y2="115" stroke="#4E342E" stroke-width="1"/>
  <line x1="95" y1="123" x2="72" y2="123" stroke="#4E342E" stroke-width="1"/>
  <line x1="95" y1="126" x2="75" y2="130" stroke="#4E342E" stroke-width="1"/>
  
  <line x1="105" y1="120" x2="130" y2="115" stroke="#4E342E" stroke-width="1"/>
  <line x1="105" y1="123" x2="128" y2="123" stroke="#4E342E" stroke-width="1"/>
  <line x1="105" y1="126" x2="125" y2="130" stroke="#4E342E" stroke-width="1"/>
</svg>